<?xml version="1.0" encoding="UTF-8"?>
<svg id="Layer_2" data-name="Layer 2" xmlns="http://www.w3.org/2000/svg" viewBox="0 0 480.99 481">
  <defs>
    <style>
      .cls-1 {
        fill: #fc0404;
        stroke-width: 0px;
      }
    </style>
  </defs>
  <g id="_图层_1" data-name="图层 1">
    <g>
      <path class="cls-1" d="M249.85,114.86c105.24-3.76,146.58,81.25,146.58,81.25-36.51-105.6,28.64-71.59-51.68-119.78,14.76,26.31,15.29,41.28,2.18,29.22-42.04-42.45-106.26-55.39-106.26-55.39,0,0-79.24,7.47-148.68,68.99,45.91-30.43,60.67-10.74,110.07-32.93-116.33,49.76-108.19,95.66-152.49,133.16,6.69-4.27,7.11-6.26,29-17.9,16.65-8.86,34.36-12.93,39.2-30.78,1.51,1.65,11.81,25.24-7.79,37.85,1.61,13.69,19.78,81.34,126.52,101.28,38.23,7.27,31.61,31.88-1.15,43.43,37.58-.89,54.6-18.22,57.99-28.19,5.01-14.77-9.71-28.73-52.66-46.98-42.95-18.26-58.66-48.68-62.95-73.74,0,0-5.01,22.01,6.08,43.67,11.72,22.88,33.56,35.71,66.22,48.44.04.02.09.04.14.06-10.14-3.25-21.39-6.34-32.94-10.72-34.61-13.12-65.07-53.9-59.19-93.09,6.44-42.95,35.92-75.86,91.81-77.85Z"/>
      <path class="cls-1" d="M211.19,232.71c13.92,5.12,60.14,15.3,98.26,31.68,26.75,11.49,45.64,25.24,38.12,54.77-6.66,26.17-52.73,65.77-117.11,65.24-64.37-.54-134.17-33.29-166.93-105.24,30.07,122.42,126.71,154.1,177.19,153.56,22.28-5.91,50.47-27.38,50.47-27.38,0,0-28.81,10.56-68.73,3.04,21.83-1.79,37.94-2.15,68.27-10.31,59.85-16.12,95.08-53.45,101.76-78.82,4.98-18.92,6.44-51.9-64.07-67.65-4.65-1.04-35.52-7.28-35.52-7.28,0,0,.26-7.93,23.34-5.02-11.09-4.66-21.3-9-37.4-13.83-16.29,22.91-67.65,7.25-67.65,7.25Z"/>
      <path class="cls-1" d="M396.43,122.91c-9.04,41.34,17.18,77.85,12.89,110.07,23.62-62.82-12.89-110.07-12.89-110.07Z"/>
      <path class="cls-1" d="M125.82,118.8c-22.01,6.09-45.39,23.72-51.01,27.2,10.11-.81,5.55,14.23-5.19,35.26,20.07-33.81,32.18-48.2,56.2-62.46Z"/>
      <path class="cls-1" d="M308.37,403.55c-8.19,9.98-21.07,21.66-38.12,29.53,29.71-2.86,63.89-16.73,79.46-28.81-1.52-6.26,0-15.39,5.37-26.13-17.72,15.57-31.68,20.49-46.71,25.41Z"/>
      <path class="cls-1" d="M366.36,371.33c-8.32,23-4.83,26.62-4.83,26.62,0,0,15.48-10.92,27.65-25.24.72-19.15,16.11-37.18,13.33-57.94-4.12,26.13-18.61,44.39-36.15,56.56Z"/>
      <path class="cls-1" d="M240.5,481C107.89,481,0,373.11,0,240.5S107.89,0,240.5,0s240.5,107.89,240.5,240.5-107.89,240.5-240.5,240.5ZM240.5,16.64C117.07,16.64,16.64,117.07,16.64,240.5s100.42,223.86,223.85,223.86,223.85-100.42,223.85-223.86S363.93,16.64,240.5,16.64Z"/>
      <path class="cls-1" d="M240.5,457.57c-119.69,0-217.07-97.38-217.07-217.07S120.8,23.43,240.5,23.43s217.07,97.38,217.07,217.07-97.38,217.07-217.07,217.07ZM240.5,26.2C122.33,26.2,26.2,122.33,26.2,240.5s96.13,214.3,214.3,214.3,214.3-96.13,214.3-214.3S358.66,26.2,240.5,26.2Z"/>
    </g>
  </g>
</svg>