<?xml version="1.0" encoding="UTF-8"?>
<svg id="Layer_2" data-name="Layer 2" xmlns="http://www.w3.org/2000/svg" viewBox="0 0 1019.5 254.5">
  <defs>
    <style>
      .cls-1 {
        fill: #fff;
        stroke-width: 0px;
      }
    </style>
  </defs>
  <g id="_图层_1" data-name="图层 1">
    <g>
      <g>
        <path class="cls-1" d="M132.2,60.77c55.68-1.99,77.56,42.99,77.56,42.99-19.32-55.87,15.15-37.88-27.34-63.38,7.81,13.92,8.09,21.84,1.16,15.46-22.24-22.46-56.22-29.31-56.22-29.31,0,0-41.93,3.95-78.67,36.51,24.29-16.1,32.1-5.68,58.24-17.42-61.55,26.33-57.24,50.62-80.68,70.45,3.54-2.26,3.76-3.31,15.34-9.47,8.81-4.69,18.18-6.84,20.74-16.29.8.87,6.25,13.35-4.12,20.03.85,7.24,10.46,43.04,66.94,53.59,20.23,3.85,16.72,16.87-.61,22.98,19.89-.47,28.89-9.64,30.68-14.91,2.65-7.81-5.14-15.2-27.87-24.86-22.73-9.66-31.04-25.76-33.31-39.02,0,0-2.65,11.65,3.22,23.11,6.2,12.11,17.76,18.89,35.04,25.63.02,0,.05.02.07.03-5.36-1.72-11.32-3.35-17.43-5.67-18.31-6.94-34.43-28.52-31.32-49.26,3.41-22.73,19-40.14,48.58-41.19Z"/>
        <path class="cls-1" d="M111.74,123.13c7.37,2.71,31.82,8.1,51.99,16.76,14.15,6.08,24.15,13.35,20.17,28.98-3.52,13.84-27.9,34.8-61.96,34.52-34.06-.28-70.99-17.61-88.32-55.68,15.91,64.77,67.05,81.53,93.75,81.25,11.79-3.13,26.7-14.49,26.7-14.49,0,0-15.25,5.59-36.36,1.61,11.55-.95,20.08-1.14,36.12-5.46,31.67-8.53,50.31-28.28,53.84-41.7,2.63-10.01,3.41-27.46-33.9-35.8-2.46-.55-18.79-3.85-18.79-3.85,0,0,.14-4.2,12.35-2.66-5.87-2.47-11.27-4.76-19.79-7.32-8.62,12.12-35.8,3.84-35.8,3.84Z"/>
        <path class="cls-1" d="M209.75,65.03c-4.78,21.88,9.09,41.19,6.82,58.24,12.5-33.24-6.82-58.24-6.82-58.24Z"/>
        <path class="cls-1" d="M66.57,62.86c-11.65,3.22-24.02,12.55-26.99,14.39,5.35-.43,2.94,7.53-2.75,18.66,10.62-17.89,17.03-25.5,29.73-33.05Z"/>
        <path class="cls-1" d="M163.16,213.52c-4.33,5.28-11.15,11.46-20.17,15.63,15.72-1.52,33.81-8.85,42.05-15.25-.8-3.31,0-8.14,2.84-13.83-9.38,8.24-16.76,10.84-24.72,13.45Z"/>
        <path class="cls-1" d="M193.84,196.47c-4.4,12.17-2.56,14.09-2.56,14.09,0,0,8.19-5.78,14.63-13.35.38-10.13,8.52-19.67,7.05-30.66-2.18,13.83-9.85,23.48-19.13,29.92Z"/>
        <path class="cls-1" d="M127.25,254.5C57.08,254.5,0,197.42,0,127.25S57.08,0,127.25,0s127.25,57.08,127.25,127.25-57.08,127.25-127.25,127.25ZM127.25,8.81C61.94,8.81,8.81,61.94,8.81,127.25s53.13,118.45,118.44,118.45,118.44-53.13,118.44-118.45S192.56,8.81,127.25,8.81Z"/>
        <path class="cls-1" d="M127.25,242.11c-63.33,0-114.86-51.53-114.86-114.86S63.92,12.4,127.25,12.4s114.86,51.52,114.86,114.85-51.53,114.86-114.86,114.86ZM127.25,13.86c-62.52,0-113.39,50.86-113.39,113.39s50.87,113.39,113.39,113.39,113.39-50.87,113.39-113.39S189.77,13.86,127.25,13.86Z"/>
      </g>
      <g>
        <path class="cls-1" d="M399.31,151.48c0,11.2-6.25,18.54-18.74,22.02-6.32,1.78-17.22,2.68-32.71,2.68-7.3,0-13.99-.24-20.07-.73-10.14-.77-14.97-1.16-14.48-1.16-1.08,0-2.16.05-3.23.14-.15-2.56-1.23-9.68-3.23-21.36-.34-1.93-.76-4.8-1.25-8.62l2.5-.51c.98,2.08,3.31,4.73,6.98,7.97,5.98,5.26,12.59,9.68,19.85,13.25,8.38,4.05,16,6.08,22.87,6.08,8.18,0,12.27-4.59,12.27-13.76,0-8.6-5.83-14.02-17.49-16.29-10.88-1.21-21.73-2.41-32.57-3.62-11.66-2.22-17.49-7.58-17.49-16.08,0-9.12,6.81-15.91,20.44-20.35,9.6-3.09,20.29-4.64,32.05-4.64,16.22,0,30.11,1.79,41.68,5.36,0,.97-.46,3.5-1.4,7.61-1.57,6.76-2.57,11.92-3.01,15.5-.34.58-.93.87-1.76.87-.59,0-1.18-.12-1.77-.36,0-6.76-5.37-12.46-16.1-17.09-8.77-3.77-17.15-5.65-25.14-5.65-7.01,0-11.72,2.46-14.11,7.39-.64,1.21-.95,2.37-.95,3.48,0,7.58,5.78,12.29,17.35,14.12,10.73,1.3,21.49,2.63,32.27,3.98,11.52,2.94,17.27,9.54,17.27,19.77Z"/>
        <path class="cls-1" d="M510.24,149.58c0-.1-.29,1.19-.87,3.86-.97,4.7-1.46,8.02-1.46,9.96v1.67c0,4.9.2,8.27.59,10.11h-4.8l-.58-8.58c-3.2,1.36-8.02,3.27-14.47,5.74-7.75,2.67-17.67,4-29.73,4-13.86,0-25.44-3.32-34.75-9.96-10.52-7.47-15.78-17.84-15.78-31.12,0-15.66,6.98-26.51,20.94-32.57,9.5-4.12,23.26-6.18,41.3-6.18,6.49,0,12.53.1,18.1.29,9.5.29,13.94.43,13.31.43,2.62,0,5.26-.24,7.92-.72-1.79,3.78-2.69,11.88-2.69,24.29v6.47c0,.39-.53.58-1.6.58-1.6,0-2.4-.19-2.4-.58,0-9.11-4.15-15.85-12.43-20.22-6.45-3.39-14.66-5.09-24.64-5.09-8,0-14.49,2.44-19.49,7.31-4.99,4.87-7.49,11.31-7.49,19.31s2.03,14.74,6.07,21.09c4.05,6.35,9.53,11.19,16.47,14.54,4.99,2.42,9.89,3.64,14.68,3.64,6.74,0,12.79-1.78,18.14-5.34,5.36-3.56,9.25-8.42,11.67-14.58.1-.19.31-.29.66-.29.53,0,1.22.21,2.07.62s1.27.86,1.27,1.34Z"/>
        <path class="cls-1" d="M630.24,173.26c0,1.13-.19,1.79-.59,1.98-1.36.74-5.32,1.44-11.86,2.13-5.57.59-9.7.88-12.38.88-6.98,0-12.21-.64-15.68-1.91-4.49-1.66-8.62-5.07-12.38-10.21-2.24-3.13-5.62-8.72-10.11-16.76-15.63,5.93-31.18,15.41-46.66,28.44-2.11,1.77-3.83,3.33-5.2,4.71-.54.69-1.49,1.52-2.86,2.5-.49.2-1.07.29-1.76.29-1.03,0-1.54-.27-1.54-.81,0-.29,13.82-21.58,41.46-63.87-4.94-8.18-8.94-13.23-12.01-15.14-3.37-2.06-9.55-3.09-18.53-3.09-1.27,0-1.91-.83-1.91-2.5,0-.73.3-1.2.88-1.39,5.13-2.01,16.04-3.01,32.74-3.01,10.21,0,18.66,3.09,25.35,9.26,4.1,3.82,9.47,11.44,16.12,22.86,7.42,12.74,11.84,20.21,13.26,22.42,6.93,10.98,12.25,17.59,15.97,19.84,1.91,1.18,4.27,1.77,7.1,1.77.39,0,.59.54.59,1.62ZM563.66,142.98c-3.03-5.34-5.84-10.27-8.42-14.77-2.25,2.4-5.38,6.64-9.38,12.71-4.49,6.91-6.74,11.37-6.74,13.38,0,.4.17.59.51.59,1.37,0,9.38-3.97,24.03-11.91Z"/>
        <path class="cls-1" d="M750.25,173.72c0,.29-.08.56-.22.8-8.2,3.87-18.24,5.81-30.14,5.81-6,0-12.95-3.75-20.85-11.26-.54-.48-6.93-7.41-19.17-20.77-6.83-7.5-11.92-11.26-15.29-11.26-1.12,0-3.09.29-5.92.87v15.69c0,8.08-.73,13.48-2.2,16.19-2.25,4.07-11.68,11.06-28.28,20.99-1.51.87-2.4,1.38-2.64,1.52-1.03,0-1.54-.53-1.54-1.6,0,.82.25-.34.74-3.49.39-2.57.73-5.98,1.02-10.24.83-10.55,1.25-22.3,1.25-35.22,0-6.34-.05-11.38-.15-15.11-.1-5.96-.25-9.95-.44-11.98-.59-5.86-1.78-9.51-3.59-10.97-1.17-.96-3.49-1.45-6.96-1.45-.59,0-.88-.61-.88-1.82,0-1.02.3-1.6.88-1.74.93-.1,2.27-.22,4.03-.36,8.74-.97,21.86-2.25,39.35-3.85l-.22,4.21c11.48-1.02,19.61-1.53,24.4-1.53,19.29,0,28.94,4.07,28.94,12.2,0,4.11-3.59,8.52-10.78,13.22-2.49,1.6-7.91,4.48-16.26,8.64,6.99,1.94,14.41,5.86,22.28,11.76,4.88,3.68,11.02,9.08,18.39,16.2,9.23,8.96,14.87,13.44,16.93,13.44.88,0,2.12-.28,3.73-.84,1.62-.56,2.44-.83,2.49-.83.74,0,1.1.92,1.1,2.76ZM683.86,121.14c0-5.32-2.26-9.54-6.77-12.64-3.98-2.76-8.77-4.14-14.35-4.14-1.94,0-3.18.07-3.71.22l-.37,27.67c13.06,0,20.91-1.69,23.53-5.08,1.11-1.4,1.67-3.41,1.67-6.03Z"/>
        <path class="cls-1" d="M814.79,169.71c0,8.89-.87,15.24-2.59,19.06-.2.34-.6.51-1.22.51-.96,0-1.54-.29-1.73-.87-.24-.91-.93-2.32-2.09-4.2-6.24-6.43-23.29-9.64-51.13-9.64-5.43,0-10.8.48-16.13,1.45,2.3-4.64,3.45-24.93,3.45-60.88,0-13.72-.05-21.7-.14-23.92-.48-12.71-1.78-20.27-3.89-22.68-1.2-1.4-3.48-2.11-6.84-2.11-.96,0-1.44-.63-1.44-1.88,0-.68.19-1.16.58-1.45,13.49-.87,28.9-2.08,46.23-3.62.24-.05.43-.07.58-.07,1.06,0,1.58.53,1.58,1.6,0,.82-.45,1.4-1.37,1.74-.39.1-.96.48-1.73,1.16-2.11,3.24-3.17,16.4-3.17,39.5,0,18.32.05,31.58.14,39.79,0,3.77.02,7.56.07,11.38.1,5.07.43,8.79,1,11.16.24,1.06.7,1.91,1.37,2.54,10.75,0,21.79-1.04,33.12-3.12,1.35-.24,2.96-.63,4.83-1.16.34,1.79.51,3.69.51,5.73Z"/>
        <path class="cls-1" d="M899.49,140.51c0,.58-.63.87-1.89.87-1.08,0-1.61-.29-1.61-.87,0-6.68-13.63-10.02-40.89-10.02-9.21,0-16.29.41-21.25,1.24,0,9.29,3.32,17.67,9.96,25.13,6.83,7.6,14.7,11.4,23.64,11.4,11.46,0,19.89-3.97,25.32-11.91.24-.39,1.08-2.15,2.53-5.3.37-.78,1.07-1.16,2.1-1.16.88,0,1.33.39,1.33,1.16,0,1.11-.54,4.47-1.61,10.06s-1.82,9.04-2.24,10.35c-6.41,3.15-20.67,4.72-42.78,4.72-13.75,0-24.99-3.36-33.73-10.09-9.77-7.51-14.66-18.16-14.66-31.96,0-25.08,19.57-37.62,58.72-37.62,3.42,0,15.15.61,35.19,1.82,0,2.71.42,7.51,1.26,14.38.42,3.34.63,4.99.63,4.94,0,.77-.59,1.16-1.76,1.16-.8,0-1.36-.38-1.69-1.13s-.89-1.85-1.69-3.3c-2.81-4.11-7.64-7.26-14.48-9.44-5.58-1.79-11.34-2.68-17.29-2.68-18.65,0-28.23,7.11-28.75,21.35,1.36.25,4.26.39,8.7.44,3.22.1,8.44.14,15.64.14h1.19c14.3,0,27.68-.19,40.11-.58v16.92Z"/>
        <path class="cls-1" d="M1019.5,99.79c0,.24-.05.46-.14.66-3.46,8.78-5.77,18-6.93,27.66,0,.69-.1,1.64-.29,2.86-.29.93-.8,1.39-1.53,1.39-.63,0-1.39-.46-2.26-1.39-2.09-8.49-5.47-14.65-10.15-18.48-4.67-3.83-11.29-5.75-19.85-5.75-.34,9.37-.51,17.18-.51,23.42,0,12.58.03,19.47.07,20.64.44,10.98,1.68,17.44,3.72,19.39,1.12,1.12,3.45,1.68,7,1.68.83,0,1.24.64,1.24,1.9s-.41,1.98-1.24,1.98c1.21,0-1.36-.15-7.74-.44-7.54-.29-13.99-.44-19.34-.44-2.82,0-7.08.15-12.77.44-5.69.29-9.95.44-12.77.44-.83,0-1.24-.63-1.24-1.9s.41-1.98,1.24-1.98c3.7,0,6.11-.56,7.23-1.68,2.28-2.29,3.5-11.86,3.65-28.69.05-3.07.07-8.17.07-15.29v-4.46c0-8.54-.58-13.52-1.75-14.93-16.01,0-25.74,8.05-29.2,24.15-.78.68-1.63,1.03-2.56,1.03-.82,0-1.34-.34-1.53-1.03-.2-1.72-.47-3.95-.8-6.69-1.95-11.47-4.04-19.5-6.28-24.11-.2-.39-.29-.66-.29-.81,0-.78.49-1.4,1.46-1.84,4.91,0,12.3.22,22.15.66,9.85.44,17.24.66,22.15.66,3.89,0,9.73-.02,17.51-.07,7.79-.05,13.65-.08,17.59-.08,12.41,0,23.28-.39,32.63-1.17.97.49,1.46,1.25,1.46,2.27Z"/>
      </g>
    </g>
  </g>
</svg>